<?xml version="1.0" encoding="utf-8"?>
<!-- Generator: Adobe Illustrator 27.6.1, SVG Export Plug-In . SVG Version: 6.00 Build 0)  -->
<svg version="1.1" id="Ebene_1" xmlns="http://www.w3.org/2000/svg" xmlns:xlink="http://www.w3.org/1999/xlink" x="0px" y="0px"
	 viewBox="0 0 500 500" style="enable-background:new 0 0 500 500;" xml:space="preserve">
<style type="text/css">
	.st0{fill:#707070;stroke:#EF9D5F;stroke-width:4;stroke-miterlimit:10;}
	.st1{fill:#707070;}
</style>
<g>
	<g>
		<path class="st0" d="M18.4,407.6c77-44.8,120.7-111.5,120.7-198.9l-23-89.7l63.2,77c-19.5,20.7-46,36.8-71.3,36.8
			c-48.3,0-81.6-34.5-81.6-82.8c0-52.9,35.6-89.7,85.1-89.7c61,0,103.5,51.7,103.5,140.3c0,115-60.9,209.3-164.4,262.2L18.4,407.6z
			 M282.9,407.6c77-44.8,120.7-111.5,120.7-198.9l-23-89.7l63.2,77c-19.5,20.7-46,36.8-71.3,36.8c-48.3,0-81.6-34.5-81.6-82.8
			c0-52.9,35.6-89.7,85.1-89.7c61,0,103.5,51.7,103.5,140.3c0,115-61,209.3-164.4,262.2L282.9,407.6z"/>
	</g>
</g>
<rect x="83.1" y="110.2" class="st1" width="105.8" height="114.8"/>
<rect x="140.4" y="223.1" class="st1" width="6" height="5.5"/>
<rect x="153.3" y="226" class="st1" width="7.1" height="2.2"/>
<rect x="354.5" y="110.2" class="st1" width="93.7" height="114.7"/>
<rect x="405" y="224.9" class="st1" width="5.4" height="4"/>
</svg>
